<svg data-v-423bf9ae="" xmlns="http://www.w3.org/2000/svg" viewBox="0 0 1863.4024604208769 1965" class="iconAboveSlogan"><!----><!----><!----><g data-v-423bf9ae="" id="d52cb481-c798-47bb-89c3-2e1f6f5e8b80" fill="black" transform="matrix(5.376344159530915,0,0,5.376344159530915,775.1689794295226,1861.4079015247623)"><path d="M0.21 13.78L2.14 2.80L3.77 2.80L3.04 6.85L3.12 6.85Q3.53 6.18 4.06 5.83Q4.60 5.48 5.25 5.48L5.25 5.48Q5.84 5.48 6.27 5.73Q6.69 5.99 6.92 6.46Q7.15 6.93 7.15 7.57L7.15 7.57Q7.15 7.93 7.08 8.29L7.08 8.29L6.12 13.78L4.46 13.78L5.41 8.40Q5.48 8.05 5.48 7.79L5.48 7.79Q5.48 7.30 5.27 7.10Q5.06 6.89 4.64 6.89L4.64 6.89Q4.18 6.89 3.78 7.16Q3.38 7.42 3.10 7.91Q2.82 8.39 2.71 9.00L2.71 9.00L1.87 13.78L0.21 13.78ZM9.46 4.44L9.75 2.80L11.41 2.80L11.12 4.44L9.46 4.44ZM7.80 13.78L9.24 5.63L10.91 5.63L9.47 13.78L7.80 13.78ZM13.42 13.78Q12.58 13.78 12.19 13.39Q11.79 13.00 11.79 12.22L11.79 12.22Q11.79 11.83 11.87 11.43L11.87 11.43L12.69 6.79L11.76 6.79L11.97 5.63L12.97 5.63L13.62 3.76L14.87 3.76L14.54 5.63L16.13 5.63L15.93 6.79L14.33 6.79L13.57 11.16Q13.49 11.60 13.49 11.85L13.49 11.85Q13.49 12.20 13.66 12.33Q13.83 12.46 14.24 12.46L14.24 12.46L14.84 12.46L14.61 13.78L13.42 13.78ZM15.85 13.78L17.29 5.63L18.86 5.63L18.69 6.91L18.74 6.91Q19.48 5.48 20.73 5.48L20.73 5.48Q21.45 5.48 21.87 5.81Q22.29 6.14 22.31 6.91L22.31 6.91L22.37 6.91Q22.85 6.16 23.38 5.82Q23.90 5.48 24.59 5.48L24.59 5.48Q25.45 5.48 25.92 5.96Q26.39 6.45 26.39 7.33L26.39 7.33Q26.39 7.69 26.32 8.05L26.32 8.05L25.31 13.78L23.65 13.78L24.63 8.22Q24.67 8.00 24.67 7.81L24.67 7.81Q24.67 7.38 24.47 7.16Q24.26 6.93 23.84 6.93L23.84 6.93Q23.21 6.93 22.80 7.51Q22.39 8.09 22.23 9.03L22.23 9.03L21.40 13.78L19.74 13.78L20.69 8.41Q20.75 8.02 20.75 7.75L20.75 7.75Q20.75 7.29 20.56 7.11Q20.38 6.93 19.96 6.93L19.96 6.93Q19.33 6.93 18.93 7.51Q18.52 8.09 18.35 9.03L18.35 9.03L17.52 13.78L15.85 13.78ZM30.73 5.48Q31.90 5.48 32.57 6.01Q33.24 6.54 33.24 7.56L33.24 7.56Q33.24 7.88 33.19 8.18L33.19 8.18L32.20 13.78L30.78 13.78L30.92 12.56L30.82 12.56Q30.54 13.04 30.15 13.36Q29.76 13.67 29.35 13.82Q28.94 13.96 28.58 13.96L28.58 13.96Q28.01 13.96 27.59 13.75Q27.17 13.54 26.94 13.16Q26.72 12.77 26.72 12.26L26.72 12.26Q26.72 12.04 26.76 11.81L26.76 11.81Q26.89 11.06 27.29 10.51Q27.69 9.97 28.37 9.53L28.37 9.53Q29.62 8.76 31.58 8.48L31.58 8.48L31.64 8.17Q31.71 7.83 31.71 7.59L31.71 7.59Q31.71 7.15 31.47 6.96Q31.23 6.76 30.73 6.76L30.73 6.76Q29.54 6.76 28.81 8.02L28.81 8.02L27.65 7.31Q28.17 6.37 28.96 5.92Q29.74 5.48 30.73 5.48L30.73 5.48ZM29.08 12.67Q29.65 12.67 30.16 12.28Q30.67 11.90 31.07 11.30L31.07 11.30L31.36 9.67Q30.79 9.74 30.28 9.92Q29.76 10.10 29.37 10.37L29.37 10.37Q28.97 10.62 28.71 10.98Q28.44 11.34 28.38 11.76L28.38 11.76Q28.36 11.87 28.36 11.97L28.36 11.97Q28.36 12.30 28.55 12.48Q28.75 12.67 29.08 12.67L29.08 12.67ZM33.88 13.78L35.31 5.63L36.80 5.63L36.61 6.90L36.69 6.90Q37.37 5.50 38.40 5.50L38.40 5.50Q38.83 5.50 39.22 5.64L39.22 5.64L38.95 7.17Q38.71 7.10 38.47 7.10L38.47 7.10L38.37 7.10Q37.58 7.15 37.03 7.81Q36.48 8.46 36.26 9.67L36.26 9.67L35.55 13.78L33.88 13.78ZM46.15 5.63L43.40 8.39L44.91 13.78L43.12 13.78L42.12 9.59L40.91 10.62L40.34 13.78L38.68 13.78L40.61 2.80L42.27 2.80L41.17 8.96L44.26 5.63L46.15 5.63ZM49.72 5.48Q51.06 5.48 51.64 6.22Q52.22 6.97 52.22 8.21L52.22 8.21Q52.22 8.80 52.10 9.53L52.10 9.53Q52.03 9.91 51.94 10.22L51.94 10.22L47.45 10.22Q47.39 10.58 47.39 10.90L47.39 10.90Q47.39 11.67 47.73 12.12Q48.06 12.57 48.73 12.57L48.73 12.57Q49.20 12.57 49.63 12.35Q50.06 12.13 50.42 11.72L50.42 11.72L51.46 12.41Q50.87 13.27 50.16 13.61Q49.46 13.95 48.62 13.95L48.62 13.95Q47.72 13.95 47.09 13.55Q46.46 13.15 46.15 12.42Q45.83 11.70 45.83 10.75L45.83 10.75Q45.83 10.21 45.93 9.61L45.93 9.61Q46.14 8.42 46.61 7.50Q47.09 6.57 47.87 6.02Q48.64 5.48 49.72 5.48L49.72 5.48ZM49.72 6.80Q48.88 6.80 48.38 7.43Q47.89 8.07 47.67 9.04L47.67 9.04L50.76 9.04Q50.85 8.45 50.85 8.06L50.85 8.06Q50.85 7.44 50.60 7.12Q50.34 6.80 49.72 6.80L49.72 6.80ZM52.67 13.78L54.11 5.63L55.59 5.63L55.41 6.90L55.48 6.90Q56.16 5.50 57.20 5.50L57.20 5.50Q57.62 5.50 58.02 5.64L58.02 5.64L57.74 7.17Q57.50 7.10 57.26 7.10L57.26 7.10L57.16 7.10Q56.38 7.15 55.83 7.81Q55.28 8.46 55.06 9.67L55.06 9.67L54.34 13.78L52.67 13.78Z"></path></g><!----><g data-v-423bf9ae="" id="fcd407e3-cfef-4e14-95d4-c7ca2fdfe856" transform="matrix(4.550288899739583,0,0,4.550288899739583,0.2988003071396861,0.2691918008029006)" stroke="none" fill="black"><path d="M204.763 173.357c-17.363 0-31.405 14.042-31.405 31.382 0 17.364 14.042 31.428 31.405 31.428 17.341 0 31.405-14.064 31.405-31.428 0-17.34-14.064-31.382-31.405-31.382z"></path><path d="M368.38 189.833c-7.122-78.724-69.977-141.591-148.7-148.713V0h-29.847v41.12C111.109 48.242 48.255 111.109 41.12 189.833H0v29.847h41.12c7.135 78.736 69.989 141.578 148.713 148.713v41.133h29.847v-41.133c78.724-7.135 141.578-69.977 148.7-148.713h41.133v-29.847H368.38zm-29.986 29.847c-6.906 62.258-56.456 111.82-118.714 118.727v-53.803h-29.847v53.803C127.575 331.5 78.013 281.938 71.106 219.68h53.803v-29.847H71.106c6.906-62.258 56.469-111.82 118.727-118.727v53.803h29.847V71.106c62.258 6.906 111.808 56.469 118.714 118.727h-53.79v29.847h53.79z"></path></g><!----><g data-v-423bf9ae="" id="5d858812-960a-4aeb-b385-bfb60f1ddd51" fill="black" transform="matrix(1.7261910003270013,0,0,1.7261910003270013,814.9174415799584,1967.9055257372224)"><path d="M11.51 13.29L11.42 13.29L11.33 13.29C11.28 13.29 11.21 13.27 11.12 13.27C11.02 13.27 10.89 13.26 10.77 13.26L10.77 9.37C10.77 8.95 10.71 8.57 10.61 8.25C10.51 7.92 10.37 7.64 10.18 7.42C9.98 7.20 9.74 7.03 9.46 6.92C9.18 6.80 8.89 6.75 8.54 6.75C8.30 6.75 8.05 6.78 7.83 6.85C7.60 6.92 7.39 7.01 7.20 7.15C7 7.29 6.82 7.46 6.66 7.67C6.51 7.88 6.40 8.13 6.31 8.43C6.20 7.90 6.01 7.48 5.70 7.18C5.39 6.89 4.98 6.75 4.48 6.75C4.26 6.75 4.05 6.76 3.85 6.83C3.65 6.89 3.47 6.99 3.29 7.10C3.12 7.21 2.95 7.36 2.80 7.52C2.65 7.67 2.51 7.84 2.37 8.04L2.31 7.03C2.30 6.92 2.23 6.86 2.10 6.86L1.74 6.86L0.73 6.86L0.73 7.13C0.73 7.28 0.81 7.36 0.99 7.38L1.08 7.38C1.11 7.38 1.13 7.39 1.18 7.39L1.39 7.39C1.48 7.39 1.61 7.41 1.74 7.41L1.74 13.26C1.57 13.26 1.43 13.29 1.32 13.29L1.09 13.29L0.99 13.29C0.81 13.30 0.73 13.38 0.73 13.54L0.73 13.82L1.74 13.82L2.39 13.82L3.40 13.82L3.40 13.54C3.40 13.38 3.32 13.30 3.14 13.29L3.05 13.29L2.95 13.29C2.91 13.29 2.84 13.27 2.74 13.27C2.65 13.27 2.52 13.26 2.39 13.26L2.39 8.55C2.65 8.15 2.94 7.84 3.26 7.62C3.58 7.39 3.93 7.28 4.31 7.28C4.83 7.28 5.22 7.45 5.49 7.81C5.75 8.18 5.89 8.69 5.89 9.37L5.89 13.82L6.57 13.82L6.57 13.82L7.57 13.82L7.57 13.54C7.57 13.38 7.48 13.30 7.29 13.29L7.22 13.29L7.11 13.29C7.07 13.29 7 13.27 6.90 13.27C6.80 13.27 6.69 13.26 6.57 13.26L6.57 9.37C6.57 9.02 6.61 8.72 6.71 8.46C6.80 8.19 6.94 7.97 7.11 7.80C7.28 7.63 7.48 7.49 7.70 7.41C7.92 7.32 8.16 7.28 8.40 7.28C8.95 7.28 9.37 7.46 9.66 7.81C9.95 8.18 10.11 8.68 10.11 9.37L10.11 13.82L10.77 13.82L11.77 13.82L11.77 13.54C11.77 13.38 11.69 13.30 11.51 13.29ZM23.09 6.73C22.58 6.73 22.13 6.83 21.74 7.00C21.35 7.17 21.01 7.41 20.73 7.71C20.45 8.02 20.26 8.40 20.12 8.85C19.98 9.30 19.89 9.79 19.89 10.33C19.89 10.88 19.98 11.37 20.12 11.80C20.26 12.24 20.45 12.63 20.73 12.94C21.01 13.24 21.35 13.48 21.74 13.65C22.13 13.82 22.58 13.90 23.09 13.90C23.59 13.90 24.02 13.82 24.42 13.65C24.81 13.48 25.14 13.24 25.41 12.94C25.68 12.63 25.90 12.24 26.04 11.80C26.18 11.37 26.25 10.88 26.25 10.33C26.25 9.79 26.18 9.30 26.04 8.85C25.90 8.40 25.68 8.02 25.41 7.71C25.14 7.41 24.81 7.17 24.42 7.00C24.02 6.83 23.59 6.73 23.09 6.73ZM23.09 13.38C22.67 13.38 22.30 13.31 21.99 13.17C21.69 13.03 21.42 12.82 21.21 12.56C21.00 12.29 20.86 11.97 20.75 11.59C20.64 11.21 20.59 10.79 20.59 10.33C20.59 9.87 20.64 9.45 20.75 9.07C20.86 8.69 21.00 8.37 21.21 8.11C21.42 7.84 21.69 7.62 21.99 7.48C22.30 7.34 22.67 7.27 23.09 7.27C23.51 7.27 23.86 7.34 24.16 7.48C24.47 7.62 24.74 7.84 24.95 8.11C25.16 8.37 25.31 8.69 25.41 9.07C25.51 9.45 25.56 9.87 25.56 10.33C25.56 10.79 25.51 11.21 25.41 11.59C25.31 11.97 25.16 12.29 24.95 12.56C24.74 12.82 24.47 13.03 24.16 13.17C23.86 13.31 23.51 13.38 23.09 13.38ZM41.72 13.29L41.65 13.29L41.54 13.29C41.50 13.29 41.43 13.27 41.33 13.27C41.23 13.27 41.12 13.26 40.99 13.26L40.99 9.37C40.99 8.96 40.94 8.60 40.84 8.27C40.74 7.95 40.60 7.67 40.40 7.45C40.21 7.22 39.97 7.06 39.68 6.93C39.38 6.80 39.05 6.75 38.67 6.75C38.15 6.75 37.67 6.87 37.25 7.11C36.83 7.36 36.47 7.67 36.15 8.08L36.09 7.03C36.08 6.92 36.01 6.86 35.88 6.86L35.52 6.86L34.51 6.86L34.51 7.13C34.51 7.28 34.59 7.36 34.78 7.38L34.86 7.38C34.89 7.38 34.92 7.39 34.96 7.39L35.17 7.39C35.27 7.39 35.39 7.41 35.52 7.41L35.52 13.26C35.35 13.26 35.21 13.29 35.10 13.29L34.87 13.29L34.78 13.29C34.59 13.30 34.51 13.38 34.51 13.54L34.51 13.82L35.52 13.82L36.18 13.82L37.18 13.82L37.18 13.54C37.18 13.38 37.10 13.30 36.92 13.29L36.83 13.29L36.74 13.29C36.69 13.29 36.62 13.27 36.53 13.27C36.43 13.27 36.30 13.26 36.18 13.26L36.18 8.60C36.48 8.19 36.83 7.87 37.23 7.63C37.62 7.39 38.04 7.28 38.50 7.28C39.12 7.28 39.58 7.46 39.87 7.83C40.17 8.20 40.32 8.71 40.32 9.37L40.32 13.82L40.99 13.82L42 13.82L42 13.54C42 13.38 41.90 13.30 41.72 13.29ZM54.84 11.06C54.73 10.86 54.59 10.71 54.40 10.57C54.22 10.43 54.01 10.32 53.79 10.23C53.56 10.15 53.31 10.05 53.07 9.98C52.84 9.91 52.60 9.83 52.36 9.76C52.14 9.69 51.93 9.59 51.74 9.49C51.56 9.39 51.42 9.27 51.31 9.13C51.20 8.99 51.14 8.81 51.14 8.58C51.14 8.40 51.17 8.23 51.25 8.08C51.34 7.92 51.45 7.77 51.60 7.64C51.74 7.52 51.93 7.43 52.14 7.36C52.35 7.29 52.57 7.25 52.82 7.25C53.19 7.25 53.55 7.31 53.93 7.43C53.94 7.60 53.96 7.77 53.97 7.92C53.98 8.08 53.98 8.19 54.00 8.27C54.01 8.36 54.01 8.43 54.01 8.44C54.03 8.67 54.12 8.78 54.32 8.78L54.66 8.78L54.66 7.11C53.93 6.86 53.31 6.75 52.81 6.75C52.46 6.75 52.14 6.80 51.86 6.90C51.58 7.00 51.32 7.14 51.13 7.31C50.93 7.48 50.78 7.69 50.67 7.91C50.55 8.13 50.51 8.37 50.51 8.62C50.51 8.92 50.57 9.16 50.68 9.35C50.79 9.55 50.93 9.70 51.11 9.84C51.30 9.98 51.49 10.09 51.73 10.18C51.95 10.26 52.19 10.35 52.44 10.42C52.68 10.49 52.92 10.57 53.16 10.64C53.38 10.71 53.59 10.81 53.77 10.92C53.96 11.03 54.11 11.16 54.22 11.31C54.33 11.47 54.39 11.65 54.39 11.89C54.39 12.10 54.35 12.29 54.28 12.49C54.19 12.68 54.08 12.84 53.93 12.98C53.77 13.12 53.59 13.23 53.37 13.31C53.14 13.40 52.89 13.44 52.60 13.44C52.07 13.44 51.62 13.37 51.24 13.22C51.23 13.03 51.21 12.87 51.20 12.71C51.18 12.56 51.18 12.43 51.17 12.35C51.16 12.26 51.16 12.19 51.16 12.18C51.14 11.96 51.04 11.84 50.85 11.84L50.51 11.84L50.51 13.54C51.18 13.79 51.87 13.93 52.57 13.93C52.96 13.93 53.30 13.87 53.61 13.76C53.91 13.65 54.17 13.50 54.38 13.30C54.59 13.10 54.74 12.89 54.85 12.63C54.96 12.36 55.02 12.08 55.02 11.77C55.02 11.49 54.95 11.26 54.84 11.06ZM65.48 13.93C65.77 13.93 66.05 13.86 66.33 13.75C66.60 13.64 66.82 13.48 67.00 13.29L66.82 12.98C66.78 12.94 66.75 12.92 66.71 12.92C66.68 12.92 66.63 12.94 66.57 12.99C66.51 13.05 66.44 13.09 66.36 13.15C66.28 13.20 66.16 13.26 66.04 13.31C65.91 13.37 65.79 13.38 65.62 13.38C65.48 13.38 65.34 13.36 65.23 13.31C65.11 13.27 65.02 13.20 64.93 13.12C64.85 13.03 64.78 12.92 64.72 12.78C64.67 12.64 64.65 12.49 64.65 12.29L64.65 7.57L66.85 7.57L66.85 7.07L64.65 7.07L64.65 4.41L64.33 4.41C64.27 4.41 64.25 4.44 64.22 4.47C64.19 4.49 64.16 4.54 64.16 4.58L63.99 7.07L62.80 7.15L62.80 7.41C62.80 7.46 62.82 7.49 62.85 7.52C62.87 7.55 62.93 7.57 62.99 7.57L63.98 7.57L63.98 12.33C63.98 12.88 64.11 13.27 64.37 13.54C64.64 13.80 65.00 13.93 65.48 13.93ZM78.22 6.73C77.73 6.73 77.28 6.83 76.89 7.00C76.50 7.17 76.17 7.41 75.91 7.71C75.64 8.02 75.43 8.39 75.29 8.81C75.15 9.23 75.07 9.69 75.07 10.19C75.07 10.78 75.15 11.31 75.31 11.77C75.46 12.24 75.67 12.61 75.95 12.94C76.23 13.26 76.57 13.50 76.96 13.66C77.35 13.83 77.78 13.90 78.26 13.90C78.53 13.90 78.79 13.89 79.04 13.83C79.30 13.78 79.55 13.71 79.77 13.62C80.00 13.54 80.21 13.44 80.39 13.31C80.57 13.19 80.72 13.06 80.84 12.92L80.65 12.70C80.63 12.66 80.57 12.63 80.51 12.63C80.47 12.63 80.39 12.66 80.29 12.74C80.19 12.82 80.05 12.91 79.87 13.01C79.70 13.10 79.48 13.17 79.23 13.26C78.97 13.34 78.67 13.38 78.32 13.38C77.92 13.38 77.57 13.31 77.25 13.17C76.93 13.03 76.66 12.84 76.44 12.57C76.22 12.31 76.05 11.97 75.92 11.58C75.80 11.19 75.74 10.71 75.74 10.19L75.74 10.07L80.77 10.07C80.84 10.07 80.88 10.05 80.91 10.01C80.93 9.97 80.96 9.90 80.96 9.80C80.96 9.31 80.89 8.88 80.75 8.50C80.61 8.12 80.43 7.78 80.18 7.53C79.94 7.28 79.65 7.08 79.31 6.94C78.97 6.80 78.61 6.73 78.22 6.73ZM78.23 7.24C78.55 7.24 78.83 7.29 79.10 7.41C79.37 7.52 79.59 7.67 79.77 7.88C79.95 8.09 80.11 8.33 80.21 8.62C80.30 8.92 80.36 9.25 80.36 9.63L75.77 9.63C75.81 9.27 75.89 8.93 76.02 8.64C76.15 8.34 76.31 8.09 76.52 7.88C76.73 7.67 76.99 7.52 77.27 7.41C77.55 7.29 77.87 7.24 78.23 7.24ZM93.72 6.80C93.53 6.76 93.35 6.73 93.14 6.73C92.60 6.73 92.13 6.89 91.76 7.21C91.38 7.53 91.08 7.98 90.86 8.54L90.80 7.07C90.80 6.99 90.78 6.93 90.75 6.90C90.72 6.87 90.66 6.86 90.58 6.86L90.23 6.86L90.23 6.86L89.22 6.86L89.22 7.13C89.22 7.31 89.32 7.36 89.49 7.38C89.57 7.38 89.66 7.38 90.23 7.41L90.23 13.26C89.66 13.29 89.57 13.29 89.49 13.29C89.32 13.30 89.22 13.36 89.22 13.54L89.22 13.82L90.23 13.82L90.89 13.82L90.89 13.82L91.90 13.82L91.90 13.54C91.90 13.36 91.80 13.30 91.63 13.29C91.55 13.29 91.46 13.29 90.89 13.26L90.89 9.30C91.10 8.68 91.38 8.20 91.71 7.88C92.05 7.56 92.48 7.39 93.02 7.39C93.16 7.39 93.28 7.41 93.39 7.42C93.51 7.43 93.62 7.45 93.69 7.48C93.77 7.50 93.81 7.53 93.87 7.55C93.93 7.56 93.97 7.57 94.00 7.57C94.08 7.57 94.12 7.53 94.14 7.46L94.22 7.00C94.07 6.92 93.90 6.85 93.72 6.80ZM104.79 13.93C105.08 13.93 105.36 13.86 105.64 13.75C105.91 13.64 106.13 13.48 106.32 13.29L106.13 12.98C106.09 12.94 106.06 12.92 106.02 12.92C105.99 12.92 105.94 12.94 105.88 12.99C105.83 13.05 105.76 13.09 105.67 13.15C105.59 13.20 105.48 13.26 105.35 13.31C105.22 13.37 105.10 13.38 104.93 13.38C104.79 13.38 104.65 13.36 104.54 13.31C104.43 13.27 104.33 13.20 104.24 13.12C104.16 13.03 104.09 12.92 104.03 12.78C103.98 12.64 103.96 12.49 103.96 12.29L103.96 7.57L106.16 7.57L106.16 7.07L103.96 7.07L103.96 4.41L103.64 4.41C103.59 4.41 103.56 4.44 103.53 4.47C103.50 4.49 103.47 4.54 103.47 4.58L103.31 7.07L102.12 7.15L102.12 7.41C102.12 7.46 102.13 7.49 102.16 7.52C102.19 7.55 102.24 7.57 102.30 7.57L103.29 7.57L103.29 12.33C103.29 12.88 103.42 13.27 103.68 13.54C103.95 13.80 104.31 13.93 104.79 13.93ZM117.57 6.73C117.07 6.73 116.62 6.83 116.23 7.00C115.84 7.17 115.50 7.41 115.22 7.71C114.94 8.02 114.74 8.40 114.60 8.85C114.46 9.30 114.38 9.79 114.38 10.33C114.38 10.88 114.46 11.37 114.60 11.80C114.74 12.24 114.94 12.63 115.22 12.94C115.50 13.24 115.84 13.48 116.23 13.65C116.62 13.82 117.07 13.90 117.57 13.90C118.08 13.90 118.51 13.82 118.90 13.65C119.29 13.48 119.63 13.24 119.90 12.94C120.16 12.63 120.39 12.24 120.53 11.80C120.67 11.37 120.74 10.88 120.74 10.33C120.74 9.79 120.67 9.30 120.53 8.85C120.39 8.40 120.16 8.02 119.90 7.71C119.63 7.41 119.29 7.17 118.90 7.00C118.51 6.83 118.08 6.73 117.57 6.73ZM117.57 13.38C117.15 13.38 116.79 13.31 116.48 13.17C116.17 13.03 115.91 12.82 115.70 12.56C115.49 12.29 115.35 11.97 115.23 11.59C115.12 11.21 115.08 10.79 115.08 10.33C115.08 9.87 115.12 9.45 115.23 9.07C115.35 8.69 115.49 8.37 115.70 8.11C115.91 7.84 116.17 7.62 116.48 7.48C116.79 7.34 117.15 7.27 117.57 7.27C117.99 7.27 118.34 7.34 118.65 7.48C118.96 7.62 119.22 7.84 119.43 8.11C119.64 8.37 119.80 8.69 119.90 9.07C119.99 9.45 120.05 9.87 120.05 10.33C120.05 10.79 119.99 11.21 119.90 11.59C119.80 11.97 119.64 12.29 119.43 12.56C119.22 12.82 118.96 13.03 118.65 13.17C118.34 13.31 117.99 13.38 117.57 13.38ZM135.24 6.86L134.72 6.86L133.32 6.86L133.32 7.13C133.32 7.28 133.42 7.36 133.60 7.38L133.69 7.38C133.71 7.38 133.74 7.39 133.78 7.39L133.99 7.39C134.09 7.39 134.20 7.41 134.33 7.41L132.19 12.52C132.15 12.61 132.10 12.73 132.08 12.82C132.05 12.92 132.03 13.02 132.01 13.12C131.99 13.09 131.99 13.05 131.98 12.98C131.96 12.91 131.95 12.85 131.94 12.82C131.91 12.73 131.88 12.63 131.84 12.52L129.70 7.41C129.85 7.41 130.00 7.39 130.12 7.39C130.23 7.39 130.31 7.38 130.34 7.38L130.42 7.38C130.61 7.36 130.70 7.28 130.70 7.13L130.70 6.86L129.29 6.86L128.77 6.86L128.27 6.86L128.27 7.13C128.27 7.28 128.35 7.36 128.53 7.38C128.53 7.38 128.69 7.38 129.00 7.39L131.71 13.82L132.30 13.82L135.00 7.39L135.27 7.39C135.35 7.39 135.39 7.38 135.42 7.38L135.49 7.38C135.67 7.36 135.77 7.28 135.77 7.13L135.77 6.86Z"></path></g></svg>