<svg data-v-fde0c5aa="" xmlns="http://www.w3.org/2000/svg" viewBox="0 0 300 300" class="font"><!----><defs data-v-fde0c5aa=""><!----></defs><rect data-v-fde0c5aa="" fill="#DDEBFB" x="0" y="0" width="300px" height="300px" class="logo-background-square"></rect><defs data-v-fde0c5aa=""><linearGradient data-v-fde0c5aa="" gradientTransform="rotate(25)" id="fe4ef2e2-0c68-4274-82b0-e4587c808c96" x1="0%" y1="0%" x2="100%" y2="0%"><stop data-v-fde0c5aa="" offset="0%" stop-color="#E90DDA" stop-opacity="1"></stop><stop data-v-fde0c5aa="" offset="100%" stop-color="#15CFF1" stop-opacity="1"></stop></linearGradient></defs><g data-v-fde0c5aa="" id="32bea253-5242-4c0b-b967-201567d3a42a" fill="url(#fe4ef2e2-0c68-4274-82b0-e4587c808c96)" transform="matrix(3.805569880191058,0,0,3.805569880191058,39.200830293403726,118.10932487580457)"><path d="M0.21 13.78L2.14 2.80L3.77 2.80L3.04 6.85L3.12 6.85Q3.53 6.18 4.06 5.83Q4.60 5.48 5.25 5.48L5.25 5.48Q5.84 5.48 6.27 5.73Q6.69 5.99 6.92 6.46Q7.15 6.93 7.15 7.57L7.15 7.57Q7.15 7.93 7.08 8.29L7.08 8.29L6.12 13.78L4.46 13.78L5.41 8.40Q5.48 8.05 5.48 7.79L5.48 7.79Q5.48 7.30 5.27 7.10Q5.06 6.89 4.64 6.89L4.64 6.89Q4.18 6.89 3.78 7.16Q3.38 7.42 3.10 7.91Q2.82 8.39 2.71 9.00L2.71 9.00L1.87 13.78L0.21 13.78ZM9.46 4.44L9.75 2.80L11.41 2.80L11.12 4.44L9.46 4.44ZM7.80 13.78L9.24 5.63L10.91 5.63L9.47 13.78L7.80 13.78ZM13.42 13.78Q12.58 13.78 12.19 13.39Q11.79 13.00 11.79 12.22L11.79 12.22Q11.79 11.83 11.87 11.43L11.87 11.43L12.69 6.79L11.76 6.79L11.97 5.63L12.97 5.63L13.62 3.76L14.87 3.76L14.54 5.63L16.13 5.63L15.93 6.79L14.33 6.79L13.57 11.16Q13.49 11.60 13.49 11.85L13.49 11.85Q13.49 12.20 13.66 12.33Q13.83 12.46 14.24 12.46L14.24 12.46L14.84 12.46L14.61 13.78L13.42 13.78ZM15.85 13.78L17.29 5.63L18.86 5.63L18.69 6.91L18.74 6.91Q19.48 5.48 20.73 5.48L20.73 5.48Q21.45 5.48 21.87 5.81Q22.29 6.14 22.31 6.91L22.31 6.91L22.37 6.91Q22.85 6.16 23.38 5.82Q23.90 5.48 24.59 5.48L24.59 5.48Q25.45 5.48 25.92 5.96Q26.39 6.45 26.39 7.33L26.39 7.33Q26.39 7.69 26.32 8.05L26.32 8.05L25.31 13.78L23.65 13.78L24.63 8.22Q24.67 8.00 24.67 7.81L24.67 7.81Q24.67 7.38 24.47 7.16Q24.26 6.93 23.84 6.93L23.84 6.93Q23.21 6.93 22.80 7.51Q22.39 8.09 22.23 9.03L22.23 9.03L21.40 13.78L19.74 13.78L20.69 8.41Q20.75 8.02 20.75 7.75L20.75 7.75Q20.75 7.29 20.56 7.11Q20.38 6.93 19.96 6.93L19.96 6.93Q19.33 6.93 18.93 7.51Q18.52 8.09 18.35 9.03L18.35 9.03L17.52 13.78L15.85 13.78ZM30.73 5.48Q31.90 5.48 32.57 6.01Q33.24 6.54 33.24 7.56L33.24 7.56Q33.24 7.88 33.19 8.18L33.19 8.18L32.20 13.78L30.78 13.78L30.92 12.56L30.82 12.56Q30.54 13.04 30.15 13.36Q29.76 13.67 29.35 13.82Q28.94 13.96 28.58 13.96L28.58 13.96Q28.01 13.96 27.59 13.75Q27.17 13.54 26.94 13.16Q26.72 12.77 26.72 12.26L26.72 12.26Q26.72 12.04 26.76 11.81L26.76 11.81Q26.89 11.06 27.29 10.51Q27.69 9.97 28.37 9.53L28.37 9.53Q29.62 8.76 31.58 8.48L31.58 8.48L31.64 8.17Q31.71 7.83 31.71 7.59L31.71 7.59Q31.71 7.15 31.47 6.96Q31.23 6.76 30.73 6.76L30.73 6.76Q29.54 6.76 28.81 8.02L28.81 8.02L27.65 7.31Q28.17 6.37 28.96 5.92Q29.74 5.48 30.73 5.48L30.73 5.48ZM29.08 12.67Q29.65 12.67 30.16 12.28Q30.67 11.90 31.07 11.30L31.07 11.30L31.36 9.67Q30.79 9.74 30.28 9.92Q29.76 10.10 29.37 10.37L29.37 10.37Q28.97 10.62 28.71 10.98Q28.44 11.34 28.38 11.76L28.38 11.76Q28.36 11.87 28.36 11.97L28.36 11.97Q28.36 12.30 28.55 12.48Q28.75 12.67 29.08 12.67L29.08 12.67ZM33.88 13.78L35.31 5.63L36.80 5.63L36.61 6.90L36.69 6.90Q37.37 5.50 38.40 5.50L38.40 5.50Q38.83 5.50 39.22 5.64L39.22 5.64L38.95 7.17Q38.71 7.10 38.47 7.10L38.47 7.10L38.37 7.10Q37.58 7.15 37.03 7.81Q36.48 8.46 36.26 9.67L36.26 9.67L35.55 13.78L33.88 13.78ZM46.15 5.63L43.40 8.39L44.91 13.78L43.12 13.78L42.12 9.59L40.91 10.62L40.34 13.78L38.68 13.78L40.61 2.80L42.27 2.80L41.17 8.96L44.26 5.63L46.15 5.63ZM49.72 5.48Q51.06 5.48 51.64 6.22Q52.22 6.97 52.22 8.21L52.22 8.21Q52.22 8.80 52.10 9.53L52.10 9.53Q52.03 9.91 51.94 10.22L51.94 10.22L47.45 10.22Q47.39 10.58 47.39 10.90L47.39 10.90Q47.39 11.67 47.73 12.12Q48.06 12.57 48.73 12.57L48.73 12.57Q49.20 12.57 49.63 12.35Q50.06 12.13 50.42 11.72L50.42 11.72L51.46 12.41Q50.87 13.27 50.16 13.61Q49.46 13.95 48.62 13.95L48.62 13.95Q47.72 13.95 47.09 13.55Q46.46 13.15 46.15 12.42Q45.83 11.70 45.83 10.75L45.83 10.75Q45.83 10.21 45.93 9.61L45.93 9.61Q46.14 8.42 46.61 7.50Q47.09 6.57 47.87 6.02Q48.64 5.48 49.72 5.48L49.72 5.48ZM49.72 6.80Q48.88 6.80 48.38 7.43Q47.89 8.07 47.67 9.04L47.67 9.04L50.76 9.04Q50.85 8.45 50.85 8.06L50.85 8.06Q50.85 7.44 50.60 7.12Q50.34 6.80 49.72 6.80L49.72 6.80ZM52.67 13.78L54.11 5.63L55.59 5.63L55.41 6.90L55.48 6.90Q56.16 5.50 57.20 5.50L57.20 5.50Q57.62 5.50 58.02 5.64L58.02 5.64L57.74 7.17Q57.50 7.10 57.26 7.10L57.26 7.10L57.16 7.10Q56.38 7.15 55.83 7.81Q55.28 8.46 55.06 9.67L55.06 9.67L54.34 13.78L52.67 13.78Z"></path></g><!----><!----></svg>